<?xml version="1.0" encoding="utf-8"?>
<!-- Generator: Adobe Illustrator 23.0.1, SVG Export Plug-In . SVG Version: 6.00 Build 0)  -->
<svg version="1.1" id="Layer_1" xmlns="http://www.w3.org/2000/svg" xmlns:xlink="http://www.w3.org/1999/xlink" x="0px" y="0px"
	 viewBox="0 0 512 512" style="enable-background:new 0 0 512 512;" xml:space="preserve">
<style type="text/css">
	.st0{fill:#FFFFFF;}
</style>
<g>
	<g>
		<g>
			<path class="st0" d="M184.2,289.3l-1.1,2.9c-1.9,5-4.4,9.2-7.6,12.6c-3.2,3.5-7,6.3-11,8.5c-4.1,2.2-8.4,3.8-12.8,4.7
				c-12.9,2.8-25,1.5-34.8-3.4c-6.4-3.3-11.9-7.7-16.3-13.2c-4.4-5.5-7.9-12-10.2-19.2c-2.4-7.2-3.5-14.9-3.5-22.9
				c0-7.1,1-14.3,3.1-21.5c2-7.1,5.1-13.6,9.3-19.2c4.1-5.6,9.4-10.1,15.8-13.6c9.4-5.1,22-6.5,36.3-3.9c4.5,0.8,8.9,2.3,13.2,4.4
				c4.2,2.1,8,4.9,11.5,8.5c3.4,3.5,6.2,8,8.3,13.5l1.2,3.1l54.2-38.5l-1.1-2c-8.4-15.9-21.4-28.9-38.5-38.5
				c-17.1-9.6-37.5-14.5-60.7-14.5c-19.4,0-36.9,3.6-52.1,10.6c-15.1,7-28.2,16.3-38.8,27.6c-10.6,11.3-18.8,24.2-24.3,38.5
				c-5.5,14.2-8.3,28.9-8.3,43.6c0,15.4,3,30.7,8.8,45.6c5.9,14.9,14.3,28.4,25,40.1c10.7,11.7,23.6,21.3,38.4,28.4
				c14.8,7.1,31.4,10.7,49.3,10.7c10.1,0,20.7-1.3,31.4-3.7c10.7-2.5,20.9-6.1,30.2-10.9c9.4-4.8,17.9-10.7,25.3-17.8
				c7.4-7.1,13.1-15.2,16.8-24.2l0.8-2L184.2,289.3z"/>
		</g>
	</g>
	<g>
		<g>
			<path class="st0" d="M494,248v-48.4h-41.6l15.3-61h-55.6l-15,61h-14.7l15.3-61h-55.6l-15,61h-49.5V248h37.7l-5.5,23.9h-49.2v51.8
				h36.6l-14,56.6h55.6l13.7-56.6h14.7l-14,56.6h55.6l13.7-56.6H477v-51.8h-42l5.5-23.9L494,248L494,248z M379.8,271.8H365l5.5-23.9
				h14.7L379.8,271.8z"/>
		</g>
	</g>
</g>
</svg>
