<?xml version="1.0" encoding="utf-8"?>
<!-- Generator: Adobe Illustrator 23.0.1, SVG Export Plug-In . SVG Version: 6.00 Build 0)  -->
<svg version="1.1" id="Layer_1" xmlns="http://www.w3.org/2000/svg" xmlns:xlink="http://www.w3.org/1999/xlink" x="0px" y="0px"
	 viewBox="0 0 512 512" style="enable-background:new 0 0 512 512;" xml:space="preserve">
<style type="text/css">
	.st0{fill:#78B9EB;}
</style>
<g>
	<path class="st0" d="M264.5,51.2c0-23.6-57.3-42.7-128-42.7S8.5,27.6,8.5,51.2s57.3,42.7,128,42.7S264.5,74.8,264.5,51.2z"/>
	<path class="st0" d="M452.3,401.1h-30l3.1-3.1c17.1-17,19.9-43.6,6.9-63.8c-13-20.3-38.4-28.7-60.9-20.2
		c-22.1-36.4-67.8-50.8-106.8-33.6c-16,7-29.4,18.7-38.6,33.6c-22.5-8.4-47.9,0-60.9,20.2c-13,20.3-10.1,46.8,6.9,63.8l3.1,3.1h-30
		c-28.3,0-51.2,22.9-51.2,51.2s22.9,51.2,51.2,51.2h307.2c28.3,0,51.2-22.9,51.2-51.2S480.5,401.1,452.3,401.1z"/>
	<path class="st0" d="M341.3,375.5h-59.7v85.3h51.2l-17.1-17.1l17.1,17.1h8.5V375.5z"/>
	<g>
		<path d="M452.3,392.5h-11.9c12.5-20.7,11.3-46.8-3.1-66.2c-14.3-19.4-39-28.3-62.4-22.4c-17.5-24.7-46-39.4-76.3-39.3
			c-8.7,0-17.3,1.3-25.6,3.7v-217C273.1,17.6,204.4,0,136.5,0S0,17.6,0,51.2v256c0,33.6,68.7,51.2,136.5,51.2c4,0,8-0.1,12.2-0.3
			c-0.8,12,2.1,24,8.2,34.4h-11.9c-33,0-59.7,26.7-59.7,59.7s26.7,59.7,59.7,59.7h307.2c33,0,59.7-26.7,59.7-59.7
			S485.3,392.5,452.3,392.5z M136.5,17.1c73,0,119.5,20.2,119.5,34.1s-46.5,34.1-119.5,34.1S17.1,65.1,17.1,51.2
			S63.6,17.1,136.5,17.1z M17.1,77.3c24.6,16.6,72.2,25.1,119.5,25.1s94.9-8.5,119.5-25.1v59.2c0,13.9-46.5,34.1-119.5,34.1
			S17.1,150.4,17.1,136.5V77.3z M17.1,162.6c24.6,16.6,72.2,25.1,119.5,25.1s94.9-8.5,119.5-25.1v59.2c0,13.9-46.5,34.1-119.5,34.1
			S17.1,235.8,17.1,221.9V162.6z M152.4,340.9c-5.5,0.3-10.8,0.4-15.9,0.4c-73,0-119.5-20.2-119.5-34.1V248
			c24.6,16.6,72.2,25.1,119.5,25.1s94.9-8.5,119.5-25.1v26.8c-13.4,6.9-24.9,16.8-33.6,29.1C193,296.3,162.7,312.3,152.4,340.9z
			 M452.3,494.9H145.1c-23.6,0-42.7-19.1-42.7-42.7s19.1-42.7,42.7-42.7H175c3.5,0,6.6-2.1,7.9-5.3c1.3-3.2,0.6-6.9-1.9-9.3
			l-3.1-3.1c-14.2-14.2-16.6-36.3-5.8-53.2c10.8-16.9,32-23.9,50.7-16.9c3.8,1.4,8.1,0,10.2-3.5c13.9-22.8,38.7-36.8,65.5-36.8
			c26.7,0,51.5,13.9,65.5,36.8c2.1,3.5,6.4,4.9,10.2,3.5c18.8-7,39.9,0,50.7,16.9c10.8,16.9,8.4,39-5.8,53.2l-3.1,3.1
			c-2.5,2.4-3.2,6.1-1.9,9.3c1.3,3.2,4.5,5.3,7.9,5.3h30c23.6,0,42.7,19.1,42.7,42.7S475.8,494.9,452.3,494.9z"/>
	</g>
</g>
</svg>
